<svg xmlns="http://www.w3.org/2000/svg" viewBox="0 0 512 512">
  <path d="M223.316 381.988c.802 43.016-26.503 79.892-64.746 93.458-2.798.992-36.645-1.257-41.51-4.407-31.299-20.266-57.892-47.18-77.782-78.744-1.946-3.088-9.092-18.557-8.619-23.429.515-5.309 1.219-11.34 1.681-10.333 11.354-42.071 50.322-72.925 96.174-71.839 51.763 1.227 93.837 43.525 94.802 95.294zM256 0C148.567 0 56.603 66.184 18.627 160c0 0 11.622-1.878 12.033-2.813 30.082-12.705 61.857-19.18 94.538-19.256.275.023.555.035.837.035 42.972 0 85.237 11.237 122.29 32.507.229.159.465.309.71.45 37.214 21.485 68.2 52.354 89.655 89.302.118.25.247.497.388.74 21.485 37.215 32.886 79.439 32.991 122.164-.022.276-.034.555-.034.836 0 34.417-6.953 67.652-20.673 98.851-.451.19-1.362 11.374-1.362 11.374C444.876 456.716 512 364.198 512 256 512 114.615 397.385 0 256 0z" fill="#46738c"/>
  <path d="M293.414 295.963c19.676 34.08 29.004 71.292 28.969 108.004h-.03c0 32.067-6.993 62.499-19.53 89.861-8.073 3.548-145.967 1.388-178.94-18.518 32.205-7.828 56.122-36.84 56.122-71.454 0-40.62-32.929-73.55-73.549-73.55-34.314 0-63.138 23.5-71.26 55.283-19.044-32.378-19.921-170.162-15.681-179.422 28.038-12.348 57.592-18.266 86.83-18.238v.03c39.352 0 76.242 10.528 108.018 28.913l-.015.026c34.08 19.676 60.764 47.239 79.09 79.049l-.024.016z" fill="#3c5064"/>
  <path d="M349.665 494.295c-6.653 2.617-13.439 4.97-20.351 7.032C306.086 508.259 281.481 512 256 512c-51.624 0-99.669-15.294-139.878-41.579 3.297.378 6.647.58 10.045.58 48.141 0 87.167-39.026 87.167-87.167s-39.026-87.167-87.167-87.167S39 335.692 39 383.833c0 2.939.148 5.844.432 8.708C14.463 353.022 0 306.203 0 256c0-34.446 6.831-67.288 19.169-97.284 2.464 1.063 5.342 1.148 7.99-.019 29.522-13.002 60.722-19.955 92.841-20.7 1.73-.04 3.463-7.992 5.199-7.996.275.023.555.035.837.035 1.323 0 2.644 7.941 3.965 7.962 38.42.618 76.163 10.209 109.998 27.91 2.803 1.466 9.419-6.059 12.167-4.482.229.158.465.309.71.45 3.718 2.147 3.535 13.435 7.125 15.765 30.6 19.863 56.444 46.289 75.494 77.239 1.088 1.767 10.95-1.041 11.993.756.118.25.247.497.388.74 1.036 1.794-6.748 8.19-5.759 10.008 18.981 34.877 29.274 73.859 29.922 113.37.018 1.125 9.827 2.25 9.83 3.376-.022.276-.034.555-.034.836 0 1.319-9.808 2.637-9.829 3.953-.532 34.289-7.996 67.367-22.206 98.38-1.208 2.633-1.165 5.515-.135 7.996z" fill="#f5f0eb"/>
  <path d="M126.035 267.965v-140c46.638 0 90.358 12.477 128.018 34.267l-70.01 121.26c-17.064-9.874-36.875-15.527-58.008-15.527z" fill="#ffaf37"/>
  <path d="M184.035 283.506l70-121.244c40.389 23.319 72.014 55.985 93.733 93.685l-121.26 70.009c-9.842-17.082-24.171-31.884-42.473-42.45z" fill="#ff9b32"/>
  <path d="M226.494 325.965l121.244-70c23.319 40.389 34.373 84.491 34.333 128H242.052c.018-19.715-4.991-39.699-15.558-58z" fill="#ff5f96"/>
  <path d="M242.035 383.965h140c0 38.004-8.288 74.07-23.146 106.499-9.567 4.204-19.439 7.839-29.576 10.864l-102.805-59.355c9.874-17.065 15.527-36.876 15.527-58.008z" fill="#ff4682"/>
  <path d="M329.314 501.327C306.086 508.259 281.481 512 256 512c-20.722 0-40.863-2.48-60.158-7.127-11.572-2.787-22.844-6.344-33.743-10.643 7.489-2.457 14.84-5.708 21.937-9.806l.023.005c17.077-9.841 31.873-24.168 42.436-42.464l102.819 59.362z" fill="#d72d73"/>
  <path d="M23.129 149.545c33.229-14.634 68.255-21.648 102.907-21.615v140.019c-19.715-.018-39.698 4.99-58 15.557l-57.65-99.853c3.452-11.742 7.718-23.134 12.743-34.108z" fill="#ffe13c"/>
  <path d="M436 109.609L284.758 260.852c-6.889 6.89-16.953 8.653-25.48 5.314l-21.573 21.573c-3.712 3.712-9.731 3.712-13.444 0s-3.712-9.731 0-13.444l21.573-21.573c-3.339-8.527-1.575-18.59 5.314-25.48L402.391 76 436 109.609z" fill="#ebe1dc"/>
  <path d="M237.705 287.739c-3.712 3.712-9.731 3.712-13.444 0s-3.712-9.731 0-13.444l21.573-21.573c-3.339-8.527-1.575-18.59 5.314-25.48L402.391 76l14 14-151.243 151.242c-6.78 6.78-8.584 16.63-5.459 25.068-.137-.051-.276-.091-.412-.145l-21.572 21.574z" fill="#dcd2cd"/>
  <path d="M68.027 283.492C52.846 292.238 39.467 304.528 29.26 320c-.345.523-1.824 2.805-3.816 5.889l.118.068c-3.687 6.372-6.784 13.128-9.22 20.192-3.202-8.507-5.961-17.23-8.256-26.141 0-.001-.007-.008-.007-.008-.036-.14-1.988-8.261-2.362-10C1.974 292.592 0 274.527 0 256c0-25.128 3.637-49.403 10.385-72.347l57.642 99.839z" fill="#ffff91"/>
  <path d="M445.56 126.252c1.547 5.076.197 10.846-4.05 14.712-5.672 5.162-14.505 4.663-19.928-.759l-49.787-49.787c-5.423-5.423-5.922-14.257-.759-19.928 5.511-6.056 14.894-6.221 20.617-.498-5.562-5.562-5.562-14.58 0-20.142l35.249-35.249c19.467-19.467 51.03-19.467 70.497 0s19.467 51.03 0 70.497l-35.249 35.249c-3.839 3.839-9.326 5.029-14.185 3.567-1.441-.433-2.843.899-2.405 2.338z" fill="#ffaf37"/>
  <path d="M395.511 114.134l-24-24c-5.562-5.563-5.562-14.58 0-20.143 3.841-3.841 9.331-5.03 14.193-3.565 1.462.441 2.825-.922 2.385-2.385-1.465-4.861-.276-10.351 3.565-14.192l34.644-34.644c19.452-19.452 51.194-20.19 70.805-.899 4.356 4.285 7.753 9.171 10.198 14.393-18.468-8.65-41.146-5.352-56.399 9.901l-35.249 35.249c-3.476 3.476-4.78 8.303-3.911 12.791.389 2.008-1.432 3.829-3.44 3.44-4.489-.869-9.315.435-12.791 3.911-5.562 5.563-5.562 14.58 0 20.143z" fill="#ff9b32"/>
</svg>
